<mxfile host="Electron" modified="2023-07-08T08:08:03.822Z" agent="Mozilla/5.0 (Windows NT 10.0; Win64; x64) AppleWebKit/537.36 (KHTML, like Gecko) draw.io/21.6.1 Chrome/112.0.5615.204 Electron/24.6.1 Safari/537.36" etag="jswdRj0X5nQjhc2VkRvf" version="21.6.1" type="device">
  <diagram name="第 1 页" id="Aewb9RXyZLogJQGHjYfw">
    <mxGraphModel dx="778" dy="460" grid="1" gridSize="11" guides="1" tooltips="1" connect="1" arrows="1" fold="1" page="1" pageScale="1" pageWidth="1100" pageHeight="850" background="none" math="1" shadow="0">
      <root>
        <mxCell id="0" />
        <mxCell id="1" parent="0" />
        <mxCell id="RVGx3be_5ZPbBElCh1o6-55" value="" style="rounded=0;whiteSpace=wrap;html=1;" vertex="1" parent="1">
          <mxGeometry x="1100" y="127" width="418" height="368" as="geometry" />
        </mxCell>
        <mxCell id="RVGx3be_5ZPbBElCh1o6-1" value="文件的物理结构" style="rounded=0;whiteSpace=wrap;html=1;shadow=0;glass=0;fontFamily=Helvetica;fontStyle=1;fontSize=16;" vertex="1" parent="1">
          <mxGeometry x="253" y="165" width="275" height="33" as="geometry" />
        </mxCell>
        <mxCell id="RVGx3be_5ZPbBElCh1o6-2" value="文件权限（创建，访问，写）" style="rounded=0;whiteSpace=wrap;html=1;shadow=0;glass=0;fontFamily=Helvetica;fontStyle=1;fontSize=16;" vertex="1" parent="1">
          <mxGeometry x="253" y="198" width="275" height="33" as="geometry" />
        </mxCell>
        <mxCell id="RVGx3be_5ZPbBElCh1o6-3" value="文件所有者，组，ACL" style="rounded=0;whiteSpace=wrap;html=1;shadow=0;glass=0;fontFamily=Helvetica;fontStyle=1;fontSize=16;" vertex="1" parent="1">
          <mxGeometry x="253" y="231" width="275" height="33" as="geometry" />
        </mxCell>
        <mxCell id="RVGx3be_5ZPbBElCh1o6-4" value="文件大小" style="rounded=0;whiteSpace=wrap;html=1;shadow=0;glass=0;fontFamily=Helvetica;fontStyle=1;fontSize=16;" vertex="1" parent="1">
          <mxGeometry x="253" y="264" width="275" height="33" as="geometry" />
        </mxCell>
        <mxCell id="RVGx3be_5ZPbBElCh1o6-6" value="一个典型的FCB" style="text;strokeColor=none;align=center;fillColor=none;html=1;verticalAlign=middle;whiteSpace=wrap;rounded=0;shadow=0;glass=0;fontFamily=Helvetica;fontStyle=1;fontSize=16;labelBackgroundColor=#00FF00;" vertex="1" parent="1">
          <mxGeometry x="330" y="308" width="121" height="30" as="geometry" />
        </mxCell>
        <mxCell id="RVGx3be_5ZPbBElCh1o6-10" value="文件名4" style="rounded=0;whiteSpace=wrap;html=1;shadow=0;glass=0;fontFamily=Helvetica;fontStyle=1;fontSize=16;" vertex="1" parent="1">
          <mxGeometry x="671" y="264" width="121" height="33" as="geometry" />
        </mxCell>
        <mxCell id="RVGx3be_5ZPbBElCh1o6-12" value="" style="rounded=0;whiteSpace=wrap;html=1;shadow=0;glass=0;fontFamily=Helvetica;fontStyle=1;fontSize=16;" vertex="1" parent="1">
          <mxGeometry x="792" y="264" width="187" height="33" as="geometry" />
        </mxCell>
        <mxCell id="RVGx3be_5ZPbBElCh1o6-13" value="文件名3" style="rounded=0;whiteSpace=wrap;html=1;shadow=0;glass=0;fontFamily=Helvetica;fontStyle=1;fontSize=16;" vertex="1" parent="1">
          <mxGeometry x="671" y="231" width="121" height="33" as="geometry" />
        </mxCell>
        <mxCell id="RVGx3be_5ZPbBElCh1o6-14" value="" style="rounded=0;whiteSpace=wrap;html=1;shadow=0;glass=0;fontFamily=Helvetica;fontStyle=1;fontSize=16;" vertex="1" parent="1">
          <mxGeometry x="792" y="231" width="187" height="33" as="geometry" />
        </mxCell>
        <mxCell id="RVGx3be_5ZPbBElCh1o6-15" value="文件名2" style="rounded=0;whiteSpace=wrap;html=1;shadow=0;glass=0;fontFamily=Helvetica;fontStyle=1;fontSize=16;" vertex="1" parent="1">
          <mxGeometry x="671" y="198" width="121" height="33" as="geometry" />
        </mxCell>
        <mxCell id="RVGx3be_5ZPbBElCh1o6-16" value="" style="rounded=0;whiteSpace=wrap;html=1;shadow=0;glass=0;fontFamily=Helvetica;fontStyle=1;fontSize=16;" vertex="1" parent="1">
          <mxGeometry x="792" y="198" width="187" height="33" as="geometry" />
        </mxCell>
        <mxCell id="RVGx3be_5ZPbBElCh1o6-17" value="文件名1" style="rounded=0;whiteSpace=wrap;html=1;shadow=0;glass=0;fontFamily=Helvetica;fontStyle=1;fontSize=16;fillColor=#d5e8d4;strokeColor=#82b366;" vertex="1" parent="1">
          <mxGeometry x="671" y="165" width="121" height="33" as="geometry" />
        </mxCell>
        <mxCell id="RVGx3be_5ZPbBElCh1o6-57" style="edgeStyle=orthogonalEdgeStyle;rounded=0;orthogonalLoop=1;jettySize=auto;html=1;exitX=1;exitY=0.5;exitDx=0;exitDy=0;entryX=0.5;entryY=0;entryDx=0;entryDy=0;curved=1;dashed=1;strokeWidth=5;startArrow=none;startFill=0;endArrow=block;endFill=0;shadow=0;strokeColor=#A680B8;" edge="1" parent="1" source="RVGx3be_5ZPbBElCh1o6-18" target="RVGx3be_5ZPbBElCh1o6-56">
          <mxGeometry relative="1" as="geometry">
            <Array as="points">
              <mxPoint x="1067" y="182" />
              <mxPoint x="1067" y="68" />
              <mxPoint x="1314" y="68" />
            </Array>
          </mxGeometry>
        </mxCell>
        <mxCell id="RVGx3be_5ZPbBElCh1o6-18" value="0xbababab" style="rounded=0;whiteSpace=wrap;html=1;shadow=0;glass=0;fontFamily=Helvetica;fontStyle=1;fontSize=16;fillColor=#d5e8d4;strokeColor=#82b366;" vertex="1" parent="1">
          <mxGeometry x="792" y="165" width="187" height="33" as="geometry" />
        </mxCell>
        <mxCell id="RVGx3be_5ZPbBElCh1o6-19" value="文件名(14B)" style="rounded=0;whiteSpace=wrap;html=1;shadow=0;glass=0;fontFamily=Helvetica;fontStyle=1;fontSize=16;" vertex="1" parent="1">
          <mxGeometry x="671" y="132" width="121" height="33" as="geometry" />
        </mxCell>
        <mxCell id="RVGx3be_5ZPbBElCh1o6-20" value="指向索引结点的指针(2B)" style="rounded=0;whiteSpace=wrap;html=1;shadow=0;glass=0;fontFamily=Helvetica;fontStyle=1;fontSize=16;" vertex="1" parent="1">
          <mxGeometry x="792" y="132" width="187" height="33" as="geometry" />
        </mxCell>
        <mxCell id="RVGx3be_5ZPbBElCh1o6-31" value="FCB（1）" style="rounded=0;whiteSpace=wrap;html=1;labelBackgroundColor=none;fillColor=#d5e8d4;strokeColor=default;" vertex="1" parent="1">
          <mxGeometry x="671" y="407" width="275" height="33" as="geometry" />
        </mxCell>
        <mxCell id="RVGx3be_5ZPbBElCh1o6-32" value="FCB（2）" style="rounded=0;whiteSpace=wrap;html=1;" vertex="1" parent="1">
          <mxGeometry x="671" y="440" width="275" height="33" as="geometry" />
        </mxCell>
        <mxCell id="RVGx3be_5ZPbBElCh1o6-33" value="FCB（3）" style="rounded=0;whiteSpace=wrap;html=1;" vertex="1" parent="1">
          <mxGeometry x="671" y="473" width="275" height="33" as="geometry" />
        </mxCell>
        <mxCell id="RVGx3be_5ZPbBElCh1o6-34" value="FCB（4）" style="rounded=0;whiteSpace=wrap;html=1;" vertex="1" parent="1">
          <mxGeometry x="671" y="506" width="275" height="33" as="geometry" />
        </mxCell>
        <mxCell id="RVGx3be_5ZPbBElCh1o6-37" value="" style="edgeStyle=orthogonalEdgeStyle;rounded=0;orthogonalLoop=1;jettySize=auto;html=1;" edge="1" parent="1" source="RVGx3be_5ZPbBElCh1o6-36" target="RVGx3be_5ZPbBElCh1o6-31">
          <mxGeometry relative="1" as="geometry" />
        </mxCell>
        <mxCell id="RVGx3be_5ZPbBElCh1o6-36" value="目录项" style="text;strokeColor=none;align=center;fillColor=none;html=1;verticalAlign=middle;whiteSpace=wrap;rounded=0;" vertex="1" parent="1">
          <mxGeometry x="561" y="408.5" width="60" height="30" as="geometry" />
        </mxCell>
        <mxCell id="RVGx3be_5ZPbBElCh1o6-38" value="文件逻辑结构" style="rounded=0;whiteSpace=wrap;html=1;shadow=0;glass=0;fontFamily=Helvetica;fontStyle=1;fontSize=16;" vertex="1" parent="1">
          <mxGeometry x="253" y="132" width="275" height="33" as="geometry" />
        </mxCell>
        <mxCell id="RVGx3be_5ZPbBElCh1o6-39" value="文件物理位置" style="rounded=0;whiteSpace=wrap;html=1;shadow=0;glass=0;fontFamily=Helvetica;fontStyle=1;fontSize=16;" vertex="1" parent="1">
          <mxGeometry x="253" y="99" width="275" height="33" as="geometry" />
        </mxCell>
        <mxCell id="RVGx3be_5ZPbBElCh1o6-40" value="文件名" style="rounded=0;whiteSpace=wrap;html=1;shadow=0;glass=0;fontFamily=Helvetica;fontStyle=1;fontSize=16;" vertex="1" parent="1">
          <mxGeometry x="253" y="66" width="275" height="33" as="geometry" />
        </mxCell>
        <mxCell id="RVGx3be_5ZPbBElCh1o6-41" value="unix“文件名-索引” 结构 文件目录" style="text;strokeColor=none;align=center;fillColor=none;html=1;verticalAlign=middle;whiteSpace=wrap;rounded=0;shadow=0;glass=0;fontFamily=Helvetica;fontStyle=1;fontSize=16;labelBackgroundColor=#00FF00;" vertex="1" parent="1">
          <mxGeometry x="704" y="319" width="275" height="30" as="geometry" />
        </mxCell>
        <mxCell id="RVGx3be_5ZPbBElCh1o6-42" value="完全由FCB构成的文件目录" style="text;strokeColor=none;align=center;fillColor=none;html=1;verticalAlign=middle;whiteSpace=wrap;rounded=0;shadow=0;glass=0;fontFamily=Helvetica;fontStyle=1;fontSize=16;labelBackgroundColor=#00FF00;" vertex="1" parent="1">
          <mxGeometry x="671" y="561" width="275" height="30" as="geometry" />
        </mxCell>
        <mxCell id="RVGx3be_5ZPbBElCh1o6-47" value="" style="edgeStyle=orthogonalEdgeStyle;rounded=0;orthogonalLoop=1;jettySize=auto;html=1;entryX=-0.018;entryY=0.548;entryDx=0;entryDy=0;entryPerimeter=0;" edge="1" parent="1" source="RVGx3be_5ZPbBElCh1o6-43" target="RVGx3be_5ZPbBElCh1o6-17">
          <mxGeometry relative="1" as="geometry">
            <Array as="points">
              <mxPoint x="646" y="176" />
              <mxPoint x="646" y="183" />
            </Array>
          </mxGeometry>
        </mxCell>
        <mxCell id="RVGx3be_5ZPbBElCh1o6-43" value="目录项" style="text;strokeColor=none;align=center;fillColor=none;html=1;verticalAlign=middle;whiteSpace=wrap;rounded=0;" vertex="1" parent="1">
          <mxGeometry x="561" y="165" width="60" height="30" as="geometry" />
        </mxCell>
        <mxCell id="RVGx3be_5ZPbBElCh1o6-48" value="文件类型" style="rounded=0;whiteSpace=wrap;html=1;fontFamily=Helvetica;fontStyle=1;fontSize=17;" vertex="1" parent="1">
          <mxGeometry x="1155" y="198" width="319" height="44" as="geometry" />
        </mxCell>
        <mxCell id="RVGx3be_5ZPbBElCh1o6-49" value="文件存取权限" style="rounded=0;whiteSpace=wrap;html=1;fontFamily=Helvetica;fontStyle=1;fontSize=17;" vertex="1" parent="1">
          <mxGeometry x="1155" y="242" width="319" height="44" as="geometry" />
        </mxCell>
        <mxCell id="RVGx3be_5ZPbBElCh1o6-50" value="文件物理地址" style="rounded=0;whiteSpace=wrap;html=1;fontFamily=Helvetica;fontStyle=1;fontSize=17;" vertex="1" parent="1">
          <mxGeometry x="1155" y="286" width="319" height="44" as="geometry" />
        </mxCell>
        <mxCell id="RVGx3be_5ZPbBElCh1o6-51" value="文件长度" style="rounded=0;whiteSpace=wrap;html=1;fontFamily=Helvetica;fontStyle=1;fontSize=17;" vertex="1" parent="1">
          <mxGeometry x="1155" y="330" width="319" height="44" as="geometry" />
        </mxCell>
        <mxCell id="RVGx3be_5ZPbBElCh1o6-52" value="文件主标识符" style="rounded=0;whiteSpace=wrap;html=1;fontFamily=Helvetica;fontStyle=1;fontSize=17;" vertex="1" parent="1">
          <mxGeometry x="1155" y="154" width="319" height="44" as="geometry" />
        </mxCell>
        <mxCell id="RVGx3be_5ZPbBElCh1o6-53" value="文件链接计数" style="rounded=0;whiteSpace=wrap;html=1;fontFamily=Helvetica;fontStyle=1;fontSize=17;" vertex="1" parent="1">
          <mxGeometry x="1155" y="374" width="319" height="44" as="geometry" />
        </mxCell>
        <mxCell id="RVGx3be_5ZPbBElCh1o6-54" value="文件存取时间" style="rounded=0;whiteSpace=wrap;html=1;fontFamily=Helvetica;fontStyle=1;fontSize=17;" vertex="1" parent="1">
          <mxGeometry x="1155" y="418" width="319" height="44" as="geometry" />
        </mxCell>
        <mxCell id="RVGx3be_5ZPbBElCh1o6-56" value="索引结点" style="text;strokeColor=none;align=center;fillColor=none;html=1;verticalAlign=middle;whiteSpace=wrap;rounded=0;fontSize=15;fontStyle=1" vertex="1" parent="1">
          <mxGeometry x="1274.75" y="88" width="79.5" height="30" as="geometry" />
        </mxCell>
        <mxCell id="RVGx3be_5ZPbBElCh1o6-58" value="" style="shape=table;startSize=0;container=1;collapsible=0;childLayout=tableLayout;fontSize=16;" vertex="1" parent="1">
          <mxGeometry x="1067" y="1210" width="341" height="200" as="geometry" />
        </mxCell>
        <mxCell id="RVGx3be_5ZPbBElCh1o6-59" value="" style="shape=tableRow;horizontal=0;startSize=0;swimlaneHead=0;swimlaneBody=0;strokeColor=inherit;top=0;left=0;bottom=0;right=0;collapsible=0;dropTarget=0;fillColor=none;points=[[0,0.5],[1,0.5]];portConstraint=eastwest;fontSize=16;" vertex="1" parent="RVGx3be_5ZPbBElCh1o6-58">
          <mxGeometry width="341" height="40" as="geometry" />
        </mxCell>
        <mxCell id="RVGx3be_5ZPbBElCh1o6-60" value="编号fd" style="shape=partialRectangle;html=1;whiteSpace=wrap;connectable=0;strokeColor=inherit;overflow=hidden;fillColor=none;top=0;left=0;bottom=0;right=0;pointerEvents=1;fontSize=16;" vertex="1" parent="RVGx3be_5ZPbBElCh1o6-59">
          <mxGeometry width="60" height="40" as="geometry">
            <mxRectangle width="60" height="40" as="alternateBounds" />
          </mxGeometry>
        </mxCell>
        <mxCell id="RVGx3be_5ZPbBElCh1o6-61" value="文件名" style="shape=partialRectangle;html=1;whiteSpace=wrap;connectable=0;strokeColor=inherit;overflow=hidden;fillColor=none;top=0;left=0;bottom=0;right=0;pointerEvents=1;fontSize=16;" vertex="1" parent="RVGx3be_5ZPbBElCh1o6-59">
          <mxGeometry x="60" width="60" height="40" as="geometry">
            <mxRectangle width="60" height="40" as="alternateBounds" />
          </mxGeometry>
        </mxCell>
        <mxCell id="RVGx3be_5ZPbBElCh1o6-62" value="...." style="shape=partialRectangle;html=1;whiteSpace=wrap;connectable=0;strokeColor=inherit;overflow=hidden;fillColor=none;top=0;left=0;bottom=0;right=0;pointerEvents=1;fontSize=16;" vertex="1" parent="RVGx3be_5ZPbBElCh1o6-59">
          <mxGeometry x="120" width="60" height="40" as="geometry">
            <mxRectangle width="60" height="40" as="alternateBounds" />
          </mxGeometry>
        </mxCell>
        <mxCell id="RVGx3be_5ZPbBElCh1o6-71" value="物理地址" style="shape=partialRectangle;html=1;whiteSpace=wrap;connectable=0;strokeColor=inherit;overflow=hidden;fillColor=none;top=0;left=0;bottom=0;right=0;pointerEvents=1;fontSize=16;" vertex="1" parent="RVGx3be_5ZPbBElCh1o6-59">
          <mxGeometry x="180" width="73" height="40" as="geometry">
            <mxRectangle width="73" height="40" as="alternateBounds" />
          </mxGeometry>
        </mxCell>
        <mxCell id="RVGx3be_5ZPbBElCh1o6-74" value="打开计数器" style="shape=partialRectangle;html=1;whiteSpace=wrap;connectable=0;strokeColor=inherit;overflow=hidden;fillColor=none;top=0;left=0;bottom=0;right=0;pointerEvents=1;fontSize=16;" vertex="1" parent="RVGx3be_5ZPbBElCh1o6-59">
          <mxGeometry x="253" width="88" height="40" as="geometry">
            <mxRectangle width="88" height="40" as="alternateBounds" />
          </mxGeometry>
        </mxCell>
        <mxCell id="RVGx3be_5ZPbBElCh1o6-63" value="" style="shape=tableRow;horizontal=0;startSize=0;swimlaneHead=0;swimlaneBody=0;strokeColor=inherit;top=0;left=0;bottom=0;right=0;collapsible=0;dropTarget=0;fillColor=none;points=[[0,0.5],[1,0.5]];portConstraint=eastwest;fontSize=16;" vertex="1" parent="RVGx3be_5ZPbBElCh1o6-58">
          <mxGeometry y="40" width="341" height="40" as="geometry" />
        </mxCell>
        <mxCell id="RVGx3be_5ZPbBElCh1o6-64" value="1" style="shape=partialRectangle;html=1;whiteSpace=wrap;connectable=0;strokeColor=inherit;overflow=hidden;fillColor=none;top=0;left=0;bottom=0;right=0;pointerEvents=1;fontSize=16;" vertex="1" parent="RVGx3be_5ZPbBElCh1o6-63">
          <mxGeometry width="60" height="40" as="geometry">
            <mxRectangle width="60" height="40" as="alternateBounds" />
          </mxGeometry>
        </mxCell>
        <mxCell id="RVGx3be_5ZPbBElCh1o6-65" value="...." style="shape=partialRectangle;html=1;whiteSpace=wrap;connectable=0;strokeColor=inherit;overflow=hidden;fillColor=none;top=0;left=0;bottom=0;right=0;pointerEvents=1;fontSize=16;" vertex="1" parent="RVGx3be_5ZPbBElCh1o6-63">
          <mxGeometry x="60" width="60" height="40" as="geometry">
            <mxRectangle width="60" height="40" as="alternateBounds" />
          </mxGeometry>
        </mxCell>
        <mxCell id="RVGx3be_5ZPbBElCh1o6-66" value="" style="shape=partialRectangle;html=1;whiteSpace=wrap;connectable=0;strokeColor=inherit;overflow=hidden;fillColor=none;top=0;left=0;bottom=0;right=0;pointerEvents=1;fontSize=16;" vertex="1" parent="RVGx3be_5ZPbBElCh1o6-63">
          <mxGeometry x="120" width="60" height="40" as="geometry">
            <mxRectangle width="60" height="40" as="alternateBounds" />
          </mxGeometry>
        </mxCell>
        <mxCell id="RVGx3be_5ZPbBElCh1o6-72" style="shape=partialRectangle;html=1;whiteSpace=wrap;connectable=0;strokeColor=inherit;overflow=hidden;fillColor=none;top=0;left=0;bottom=0;right=0;pointerEvents=1;fontSize=16;" vertex="1" parent="RVGx3be_5ZPbBElCh1o6-63">
          <mxGeometry x="180" width="73" height="40" as="geometry">
            <mxRectangle width="73" height="40" as="alternateBounds" />
          </mxGeometry>
        </mxCell>
        <mxCell id="RVGx3be_5ZPbBElCh1o6-75" value="...." style="shape=partialRectangle;html=1;whiteSpace=wrap;connectable=0;strokeColor=inherit;overflow=hidden;fillColor=none;top=0;left=0;bottom=0;right=0;pointerEvents=1;fontSize=16;" vertex="1" parent="RVGx3be_5ZPbBElCh1o6-63">
          <mxGeometry x="253" width="88" height="40" as="geometry">
            <mxRectangle width="88" height="40" as="alternateBounds" />
          </mxGeometry>
        </mxCell>
        <mxCell id="RVGx3be_5ZPbBElCh1o6-67" value="" style="shape=tableRow;horizontal=0;startSize=0;swimlaneHead=0;swimlaneBody=0;strokeColor=inherit;top=0;left=0;bottom=0;right=0;collapsible=0;dropTarget=0;fillColor=none;points=[[0,0.5],[1,0.5]];portConstraint=eastwest;fontSize=16;" vertex="1" parent="RVGx3be_5ZPbBElCh1o6-58">
          <mxGeometry y="80" width="341" height="40" as="geometry" />
        </mxCell>
        <mxCell id="RVGx3be_5ZPbBElCh1o6-68" value="...." style="shape=partialRectangle;html=1;whiteSpace=wrap;connectable=0;strokeColor=inherit;overflow=hidden;fillColor=none;top=0;left=0;bottom=0;right=0;pointerEvents=1;fontSize=16;" vertex="1" parent="RVGx3be_5ZPbBElCh1o6-67">
          <mxGeometry width="60" height="40" as="geometry">
            <mxRectangle width="60" height="40" as="alternateBounds" />
          </mxGeometry>
        </mxCell>
        <mxCell id="RVGx3be_5ZPbBElCh1o6-69" value="...." style="shape=partialRectangle;html=1;whiteSpace=wrap;connectable=0;strokeColor=inherit;overflow=hidden;fillColor=none;top=0;left=0;bottom=0;right=0;pointerEvents=1;fontSize=16;" vertex="1" parent="RVGx3be_5ZPbBElCh1o6-67">
          <mxGeometry x="60" width="60" height="40" as="geometry">
            <mxRectangle width="60" height="40" as="alternateBounds" />
          </mxGeometry>
        </mxCell>
        <mxCell id="RVGx3be_5ZPbBElCh1o6-70" value="" style="shape=partialRectangle;html=1;whiteSpace=wrap;connectable=0;strokeColor=inherit;overflow=hidden;fillColor=none;top=0;left=0;bottom=0;right=0;pointerEvents=1;fontSize=16;" vertex="1" parent="RVGx3be_5ZPbBElCh1o6-67">
          <mxGeometry x="120" width="60" height="40" as="geometry">
            <mxRectangle width="60" height="40" as="alternateBounds" />
          </mxGeometry>
        </mxCell>
        <mxCell id="RVGx3be_5ZPbBElCh1o6-73" style="shape=partialRectangle;html=1;whiteSpace=wrap;connectable=0;strokeColor=inherit;overflow=hidden;fillColor=none;top=0;left=0;bottom=0;right=0;pointerEvents=1;fontSize=16;" vertex="1" parent="RVGx3be_5ZPbBElCh1o6-67">
          <mxGeometry x="180" width="73" height="40" as="geometry">
            <mxRectangle width="73" height="40" as="alternateBounds" />
          </mxGeometry>
        </mxCell>
        <mxCell id="RVGx3be_5ZPbBElCh1o6-76" value="...." style="shape=partialRectangle;html=1;whiteSpace=wrap;connectable=0;strokeColor=inherit;overflow=hidden;fillColor=none;top=0;left=0;bottom=0;right=0;pointerEvents=1;fontSize=16;" vertex="1" parent="RVGx3be_5ZPbBElCh1o6-67">
          <mxGeometry x="253" width="88" height="40" as="geometry">
            <mxRectangle width="88" height="40" as="alternateBounds" />
          </mxGeometry>
        </mxCell>
        <mxCell id="RVGx3be_5ZPbBElCh1o6-83" style="shape=tableRow;horizontal=0;startSize=0;swimlaneHead=0;swimlaneBody=0;strokeColor=inherit;top=0;left=0;bottom=0;right=0;collapsible=0;dropTarget=0;fillColor=none;points=[[0,0.5],[1,0.5]];portConstraint=eastwest;fontSize=16;" vertex="1" parent="RVGx3be_5ZPbBElCh1o6-58">
          <mxGeometry y="120" width="341" height="40" as="geometry" />
        </mxCell>
        <mxCell id="RVGx3be_5ZPbBElCh1o6-84" value="k" style="shape=partialRectangle;html=1;whiteSpace=wrap;connectable=0;strokeColor=#82b366;overflow=hidden;fillColor=#d5e8d4;top=0;left=0;bottom=0;right=0;pointerEvents=1;fontSize=16;" vertex="1" parent="RVGx3be_5ZPbBElCh1o6-83">
          <mxGeometry width="60" height="40" as="geometry">
            <mxRectangle width="60" height="40" as="alternateBounds" />
          </mxGeometry>
        </mxCell>
        <mxCell id="RVGx3be_5ZPbBElCh1o6-85" value="test.txt" style="shape=partialRectangle;html=1;whiteSpace=wrap;connectable=0;strokeColor=#82b366;overflow=hidden;fillColor=#d5e8d4;top=0;left=0;bottom=0;right=0;pointerEvents=1;fontSize=16;" vertex="1" parent="RVGx3be_5ZPbBElCh1o6-83">
          <mxGeometry x="60" width="60" height="40" as="geometry">
            <mxRectangle width="60" height="40" as="alternateBounds" />
          </mxGeometry>
        </mxCell>
        <mxCell id="RVGx3be_5ZPbBElCh1o6-86" style="shape=partialRectangle;html=1;whiteSpace=wrap;connectable=0;strokeColor=#82b366;overflow=hidden;fillColor=#d5e8d4;top=0;left=0;bottom=0;right=0;pointerEvents=1;fontSize=16;" vertex="1" parent="RVGx3be_5ZPbBElCh1o6-83">
          <mxGeometry x="120" width="60" height="40" as="geometry">
            <mxRectangle width="60" height="40" as="alternateBounds" />
          </mxGeometry>
        </mxCell>
        <mxCell id="RVGx3be_5ZPbBElCh1o6-87" style="shape=partialRectangle;html=1;whiteSpace=wrap;connectable=0;strokeColor=#82b366;overflow=hidden;fillColor=#d5e8d4;top=0;left=0;bottom=0;right=0;pointerEvents=1;fontSize=16;" vertex="1" parent="RVGx3be_5ZPbBElCh1o6-83">
          <mxGeometry x="180" width="73" height="40" as="geometry">
            <mxRectangle width="73" height="40" as="alternateBounds" />
          </mxGeometry>
        </mxCell>
        <mxCell id="RVGx3be_5ZPbBElCh1o6-88" value="2" style="shape=partialRectangle;html=1;whiteSpace=wrap;connectable=0;strokeColor=#82b366;overflow=hidden;fillColor=#d5e8d4;top=0;left=0;bottom=0;right=0;pointerEvents=1;fontSize=16;" vertex="1" parent="RVGx3be_5ZPbBElCh1o6-83">
          <mxGeometry x="253" width="88" height="40" as="geometry">
            <mxRectangle width="88" height="40" as="alternateBounds" />
          </mxGeometry>
        </mxCell>
        <mxCell id="RVGx3be_5ZPbBElCh1o6-77" style="shape=tableRow;horizontal=0;startSize=0;swimlaneHead=0;swimlaneBody=0;strokeColor=inherit;top=0;left=0;bottom=0;right=0;collapsible=0;dropTarget=0;fillColor=none;points=[[0,0.5],[1,0.5]];portConstraint=eastwest;fontSize=16;" vertex="1" parent="RVGx3be_5ZPbBElCh1o6-58">
          <mxGeometry y="160" width="341" height="40" as="geometry" />
        </mxCell>
        <mxCell id="RVGx3be_5ZPbBElCh1o6-78" value="...." style="shape=partialRectangle;html=1;whiteSpace=wrap;connectable=0;strokeColor=inherit;overflow=hidden;fillColor=none;top=0;left=0;bottom=0;right=0;pointerEvents=1;fontSize=16;" vertex="1" parent="RVGx3be_5ZPbBElCh1o6-77">
          <mxGeometry width="60" height="40" as="geometry">
            <mxRectangle width="60" height="40" as="alternateBounds" />
          </mxGeometry>
        </mxCell>
        <mxCell id="RVGx3be_5ZPbBElCh1o6-79" value="...." style="shape=partialRectangle;html=1;whiteSpace=wrap;connectable=0;strokeColor=inherit;overflow=hidden;fillColor=none;top=0;left=0;bottom=0;right=0;pointerEvents=1;fontSize=16;" vertex="1" parent="RVGx3be_5ZPbBElCh1o6-77">
          <mxGeometry x="60" width="60" height="40" as="geometry">
            <mxRectangle width="60" height="40" as="alternateBounds" />
          </mxGeometry>
        </mxCell>
        <mxCell id="RVGx3be_5ZPbBElCh1o6-80" style="shape=partialRectangle;html=1;whiteSpace=wrap;connectable=0;strokeColor=inherit;overflow=hidden;fillColor=none;top=0;left=0;bottom=0;right=0;pointerEvents=1;fontSize=16;" vertex="1" parent="RVGx3be_5ZPbBElCh1o6-77">
          <mxGeometry x="120" width="60" height="40" as="geometry">
            <mxRectangle width="60" height="40" as="alternateBounds" />
          </mxGeometry>
        </mxCell>
        <mxCell id="RVGx3be_5ZPbBElCh1o6-81" style="shape=partialRectangle;html=1;whiteSpace=wrap;connectable=0;strokeColor=inherit;overflow=hidden;fillColor=none;top=0;left=0;bottom=0;right=0;pointerEvents=1;fontSize=16;" vertex="1" parent="RVGx3be_5ZPbBElCh1o6-77">
          <mxGeometry x="180" width="73" height="40" as="geometry">
            <mxRectangle width="73" height="40" as="alternateBounds" />
          </mxGeometry>
        </mxCell>
        <mxCell id="RVGx3be_5ZPbBElCh1o6-82" style="shape=partialRectangle;html=1;whiteSpace=wrap;connectable=0;strokeColor=inherit;overflow=hidden;fillColor=none;top=0;left=0;bottom=0;right=0;pointerEvents=1;fontSize=16;" vertex="1" parent="RVGx3be_5ZPbBElCh1o6-77">
          <mxGeometry x="253" width="88" height="40" as="geometry">
            <mxRectangle width="88" height="40" as="alternateBounds" />
          </mxGeometry>
        </mxCell>
        <mxCell id="RVGx3be_5ZPbBElCh1o6-89" value="记录此时有多少进程打开了此文件" style="whiteSpace=wrap;html=1;shape=mxgraph.basic.rectCallout;dx=30;dy=15;boundedLbl=1;" vertex="1" parent="1">
          <mxGeometry x="1342" y="1155" width="100" height="60" as="geometry" />
        </mxCell>
        <mxCell id="RVGx3be_5ZPbBElCh1o6-90" value="&lt;font style=&quot;font-size: 18px;&quot;&gt;系统打开文件表&lt;/font&gt;" style="text;strokeColor=none;align=center;fillColor=none;html=1;verticalAlign=middle;whiteSpace=wrap;rounded=0;" vertex="1" parent="1">
          <mxGeometry x="1146.75" y="1430" width="181.5" height="30" as="geometry" />
        </mxCell>
        <mxCell id="RVGx3be_5ZPbBElCh1o6-158" style="edgeStyle=orthogonalEdgeStyle;curved=1;rounded=0;orthogonalLoop=1;jettySize=auto;html=1;exitX=1;exitY=0.75;exitDx=0;exitDy=0;entryX=0;entryY=0.5;entryDx=0;entryDy=0;strokeColor=#660066;strokeWidth=4;" edge="1" parent="1" source="RVGx3be_5ZPbBElCh1o6-91" target="RVGx3be_5ZPbBElCh1o6-83">
          <mxGeometry relative="1" as="geometry" />
        </mxCell>
        <mxCell id="RVGx3be_5ZPbBElCh1o6-91" value="" style="shape=table;startSize=0;container=1;collapsible=0;childLayout=tableLayout;fontSize=16;" vertex="1" parent="1">
          <mxGeometry x="451" y="1064" width="374" height="200" as="geometry" />
        </mxCell>
        <mxCell id="RVGx3be_5ZPbBElCh1o6-92" value="" style="shape=tableRow;horizontal=0;startSize=0;swimlaneHead=0;swimlaneBody=0;strokeColor=inherit;top=0;left=0;bottom=0;right=0;collapsible=0;dropTarget=0;fillColor=none;points=[[0,0.5],[1,0.5]];portConstraint=eastwest;fontSize=16;" vertex="1" parent="RVGx3be_5ZPbBElCh1o6-91">
          <mxGeometry width="374" height="40" as="geometry" />
        </mxCell>
        <mxCell id="RVGx3be_5ZPbBElCh1o6-93" value="编号fd" style="shape=partialRectangle;html=1;whiteSpace=wrap;connectable=0;strokeColor=inherit;overflow=hidden;fillColor=none;top=0;left=0;bottom=0;right=0;pointerEvents=1;fontSize=16;" vertex="1" parent="RVGx3be_5ZPbBElCh1o6-92">
          <mxGeometry width="60" height="40" as="geometry">
            <mxRectangle width="60" height="40" as="alternateBounds" />
          </mxGeometry>
        </mxCell>
        <mxCell id="RVGx3be_5ZPbBElCh1o6-94" value="文件名" style="shape=partialRectangle;html=1;whiteSpace=wrap;connectable=0;strokeColor=inherit;overflow=hidden;fillColor=none;top=0;left=0;bottom=0;right=0;pointerEvents=1;fontSize=16;" vertex="1" parent="RVGx3be_5ZPbBElCh1o6-92">
          <mxGeometry x="60" width="60" height="40" as="geometry">
            <mxRectangle width="60" height="40" as="alternateBounds" />
          </mxGeometry>
        </mxCell>
        <mxCell id="RVGx3be_5ZPbBElCh1o6-95" value="读写指针" style="shape=partialRectangle;html=1;whiteSpace=wrap;connectable=0;strokeColor=inherit;overflow=hidden;fillColor=none;top=0;left=0;bottom=0;right=0;pointerEvents=1;fontSize=16;" vertex="1" parent="RVGx3be_5ZPbBElCh1o6-92">
          <mxGeometry x="120" width="78" height="40" as="geometry">
            <mxRectangle width="78" height="40" as="alternateBounds" />
          </mxGeometry>
        </mxCell>
        <mxCell id="RVGx3be_5ZPbBElCh1o6-96" value="访问权限" style="shape=partialRectangle;html=1;whiteSpace=wrap;connectable=0;strokeColor=inherit;overflow=hidden;fillColor=none;top=0;left=0;bottom=0;right=0;pointerEvents=1;fontSize=16;" vertex="1" parent="RVGx3be_5ZPbBElCh1o6-92">
          <mxGeometry x="198" width="77" height="40" as="geometry">
            <mxRectangle width="77" height="40" as="alternateBounds" />
          </mxGeometry>
        </mxCell>
        <mxCell id="RVGx3be_5ZPbBElCh1o6-97" value="系统表索引号" style="shape=partialRectangle;html=1;whiteSpace=wrap;connectable=0;strokeColor=inherit;overflow=hidden;fillColor=none;top=0;left=0;bottom=0;right=0;pointerEvents=1;fontSize=16;" vertex="1" parent="RVGx3be_5ZPbBElCh1o6-92">
          <mxGeometry x="275" width="99" height="40" as="geometry">
            <mxRectangle width="99" height="40" as="alternateBounds" />
          </mxGeometry>
        </mxCell>
        <mxCell id="RVGx3be_5ZPbBElCh1o6-98" value="" style="shape=tableRow;horizontal=0;startSize=0;swimlaneHead=0;swimlaneBody=0;strokeColor=inherit;top=0;left=0;bottom=0;right=0;collapsible=0;dropTarget=0;fillColor=none;points=[[0,0.5],[1,0.5]];portConstraint=eastwest;fontSize=16;" vertex="1" parent="RVGx3be_5ZPbBElCh1o6-91">
          <mxGeometry y="40" width="374" height="40" as="geometry" />
        </mxCell>
        <mxCell id="RVGx3be_5ZPbBElCh1o6-99" value="1" style="shape=partialRectangle;html=1;whiteSpace=wrap;connectable=0;strokeColor=inherit;overflow=hidden;fillColor=none;top=0;left=0;bottom=0;right=0;pointerEvents=1;fontSize=16;" vertex="1" parent="RVGx3be_5ZPbBElCh1o6-98">
          <mxGeometry width="60" height="40" as="geometry">
            <mxRectangle width="60" height="40" as="alternateBounds" />
          </mxGeometry>
        </mxCell>
        <mxCell id="RVGx3be_5ZPbBElCh1o6-100" value="...." style="shape=partialRectangle;html=1;whiteSpace=wrap;connectable=0;strokeColor=inherit;overflow=hidden;fillColor=none;top=0;left=0;bottom=0;right=0;pointerEvents=1;fontSize=16;" vertex="1" parent="RVGx3be_5ZPbBElCh1o6-98">
          <mxGeometry x="60" width="60" height="40" as="geometry">
            <mxRectangle width="60" height="40" as="alternateBounds" />
          </mxGeometry>
        </mxCell>
        <mxCell id="RVGx3be_5ZPbBElCh1o6-101" value="" style="shape=partialRectangle;html=1;whiteSpace=wrap;connectable=0;strokeColor=inherit;overflow=hidden;fillColor=none;top=0;left=0;bottom=0;right=0;pointerEvents=1;fontSize=16;" vertex="1" parent="RVGx3be_5ZPbBElCh1o6-98">
          <mxGeometry x="120" width="78" height="40" as="geometry">
            <mxRectangle width="78" height="40" as="alternateBounds" />
          </mxGeometry>
        </mxCell>
        <mxCell id="RVGx3be_5ZPbBElCh1o6-102" style="shape=partialRectangle;html=1;whiteSpace=wrap;connectable=0;strokeColor=inherit;overflow=hidden;fillColor=none;top=0;left=0;bottom=0;right=0;pointerEvents=1;fontSize=16;" vertex="1" parent="RVGx3be_5ZPbBElCh1o6-98">
          <mxGeometry x="198" width="77" height="40" as="geometry">
            <mxRectangle width="77" height="40" as="alternateBounds" />
          </mxGeometry>
        </mxCell>
        <mxCell id="RVGx3be_5ZPbBElCh1o6-103" value="...." style="shape=partialRectangle;html=1;whiteSpace=wrap;connectable=0;strokeColor=inherit;overflow=hidden;fillColor=none;top=0;left=0;bottom=0;right=0;pointerEvents=1;fontSize=16;" vertex="1" parent="RVGx3be_5ZPbBElCh1o6-98">
          <mxGeometry x="275" width="99" height="40" as="geometry">
            <mxRectangle width="99" height="40" as="alternateBounds" />
          </mxGeometry>
        </mxCell>
        <mxCell id="RVGx3be_5ZPbBElCh1o6-104" value="" style="shape=tableRow;horizontal=0;startSize=0;swimlaneHead=0;swimlaneBody=0;strokeColor=inherit;top=0;left=0;bottom=0;right=0;collapsible=0;dropTarget=0;fillColor=none;points=[[0,0.5],[1,0.5]];portConstraint=eastwest;fontSize=16;" vertex="1" parent="RVGx3be_5ZPbBElCh1o6-91">
          <mxGeometry y="80" width="374" height="40" as="geometry" />
        </mxCell>
        <mxCell id="RVGx3be_5ZPbBElCh1o6-105" value="2" style="shape=partialRectangle;html=1;whiteSpace=wrap;connectable=0;strokeColor=inherit;overflow=hidden;fillColor=none;top=0;left=0;bottom=0;right=0;pointerEvents=1;fontSize=16;" vertex="1" parent="RVGx3be_5ZPbBElCh1o6-104">
          <mxGeometry width="60" height="40" as="geometry">
            <mxRectangle width="60" height="40" as="alternateBounds" />
          </mxGeometry>
        </mxCell>
        <mxCell id="RVGx3be_5ZPbBElCh1o6-106" value="...." style="shape=partialRectangle;html=1;whiteSpace=wrap;connectable=0;strokeColor=inherit;overflow=hidden;fillColor=none;top=0;left=0;bottom=0;right=0;pointerEvents=1;fontSize=16;" vertex="1" parent="RVGx3be_5ZPbBElCh1o6-104">
          <mxGeometry x="60" width="60" height="40" as="geometry">
            <mxRectangle width="60" height="40" as="alternateBounds" />
          </mxGeometry>
        </mxCell>
        <mxCell id="RVGx3be_5ZPbBElCh1o6-107" value="" style="shape=partialRectangle;html=1;whiteSpace=wrap;connectable=0;strokeColor=inherit;overflow=hidden;fillColor=none;top=0;left=0;bottom=0;right=0;pointerEvents=1;fontSize=16;" vertex="1" parent="RVGx3be_5ZPbBElCh1o6-104">
          <mxGeometry x="120" width="78" height="40" as="geometry">
            <mxRectangle width="78" height="40" as="alternateBounds" />
          </mxGeometry>
        </mxCell>
        <mxCell id="RVGx3be_5ZPbBElCh1o6-108" style="shape=partialRectangle;html=1;whiteSpace=wrap;connectable=0;strokeColor=inherit;overflow=hidden;fillColor=none;top=0;left=0;bottom=0;right=0;pointerEvents=1;fontSize=16;" vertex="1" parent="RVGx3be_5ZPbBElCh1o6-104">
          <mxGeometry x="198" width="77" height="40" as="geometry">
            <mxRectangle width="77" height="40" as="alternateBounds" />
          </mxGeometry>
        </mxCell>
        <mxCell id="RVGx3be_5ZPbBElCh1o6-109" value="...." style="shape=partialRectangle;html=1;whiteSpace=wrap;connectable=0;strokeColor=inherit;overflow=hidden;fillColor=none;top=0;left=0;bottom=0;right=0;pointerEvents=1;fontSize=16;" vertex="1" parent="RVGx3be_5ZPbBElCh1o6-104">
          <mxGeometry x="275" width="99" height="40" as="geometry">
            <mxRectangle width="99" height="40" as="alternateBounds" />
          </mxGeometry>
        </mxCell>
        <mxCell id="RVGx3be_5ZPbBElCh1o6-110" style="shape=tableRow;horizontal=0;startSize=0;swimlaneHead=0;swimlaneBody=0;strokeColor=inherit;top=0;left=0;bottom=0;right=0;collapsible=0;dropTarget=0;fillColor=none;points=[[0,0.5],[1,0.5]];portConstraint=eastwest;fontSize=16;" vertex="1" parent="RVGx3be_5ZPbBElCh1o6-91">
          <mxGeometry y="120" width="374" height="40" as="geometry" />
        </mxCell>
        <mxCell id="RVGx3be_5ZPbBElCh1o6-111" value="3" style="shape=partialRectangle;html=1;whiteSpace=wrap;connectable=0;strokeColor=#82b366;overflow=hidden;fillColor=#d5e8d4;top=0;left=0;bottom=0;right=0;pointerEvents=1;fontSize=16;" vertex="1" parent="RVGx3be_5ZPbBElCh1o6-110">
          <mxGeometry width="60" height="40" as="geometry">
            <mxRectangle width="60" height="40" as="alternateBounds" />
          </mxGeometry>
        </mxCell>
        <mxCell id="RVGx3be_5ZPbBElCh1o6-112" value="test.txt" style="shape=partialRectangle;html=1;whiteSpace=wrap;connectable=0;strokeColor=#82b366;overflow=hidden;fillColor=#d5e8d4;top=0;left=0;bottom=0;right=0;pointerEvents=1;fontSize=16;" vertex="1" parent="RVGx3be_5ZPbBElCh1o6-110">
          <mxGeometry x="60" width="60" height="40" as="geometry">
            <mxRectangle width="60" height="40" as="alternateBounds" />
          </mxGeometry>
        </mxCell>
        <mxCell id="RVGx3be_5ZPbBElCh1o6-113" value="...." style="shape=partialRectangle;html=1;whiteSpace=wrap;connectable=0;strokeColor=#82b366;overflow=hidden;fillColor=#d5e8d4;top=0;left=0;bottom=0;right=0;pointerEvents=1;fontSize=16;" vertex="1" parent="RVGx3be_5ZPbBElCh1o6-110">
          <mxGeometry x="120" width="78" height="40" as="geometry">
            <mxRectangle width="78" height="40" as="alternateBounds" />
          </mxGeometry>
        </mxCell>
        <mxCell id="RVGx3be_5ZPbBElCh1o6-114" value="只读" style="shape=partialRectangle;html=1;whiteSpace=wrap;connectable=0;strokeColor=#82b366;overflow=hidden;fillColor=#d5e8d4;top=0;left=0;bottom=0;right=0;pointerEvents=1;fontSize=16;" vertex="1" parent="RVGx3be_5ZPbBElCh1o6-110">
          <mxGeometry x="198" width="77" height="40" as="geometry">
            <mxRectangle width="77" height="40" as="alternateBounds" />
          </mxGeometry>
        </mxCell>
        <mxCell id="RVGx3be_5ZPbBElCh1o6-115" value="k" style="shape=partialRectangle;html=1;whiteSpace=wrap;connectable=0;strokeColor=#82b366;overflow=hidden;fillColor=#d5e8d4;top=0;left=0;bottom=0;right=0;pointerEvents=1;fontSize=16;" vertex="1" parent="RVGx3be_5ZPbBElCh1o6-110">
          <mxGeometry x="275" width="99" height="40" as="geometry">
            <mxRectangle width="99" height="40" as="alternateBounds" />
          </mxGeometry>
        </mxCell>
        <mxCell id="RVGx3be_5ZPbBElCh1o6-116" style="shape=tableRow;horizontal=0;startSize=0;swimlaneHead=0;swimlaneBody=0;strokeColor=inherit;top=0;left=0;bottom=0;right=0;collapsible=0;dropTarget=0;fillColor=none;points=[[0,0.5],[1,0.5]];portConstraint=eastwest;fontSize=16;" vertex="1" parent="RVGx3be_5ZPbBElCh1o6-91">
          <mxGeometry y="160" width="374" height="40" as="geometry" />
        </mxCell>
        <mxCell id="RVGx3be_5ZPbBElCh1o6-117" value="...." style="shape=partialRectangle;html=1;whiteSpace=wrap;connectable=0;strokeColor=inherit;overflow=hidden;fillColor=none;top=0;left=0;bottom=0;right=0;pointerEvents=1;fontSize=16;" vertex="1" parent="RVGx3be_5ZPbBElCh1o6-116">
          <mxGeometry width="60" height="40" as="geometry">
            <mxRectangle width="60" height="40" as="alternateBounds" />
          </mxGeometry>
        </mxCell>
        <mxCell id="RVGx3be_5ZPbBElCh1o6-118" value="...." style="shape=partialRectangle;html=1;whiteSpace=wrap;connectable=0;strokeColor=inherit;overflow=hidden;fillColor=none;top=0;left=0;bottom=0;right=0;pointerEvents=1;fontSize=16;" vertex="1" parent="RVGx3be_5ZPbBElCh1o6-116">
          <mxGeometry x="60" width="60" height="40" as="geometry">
            <mxRectangle width="60" height="40" as="alternateBounds" />
          </mxGeometry>
        </mxCell>
        <mxCell id="RVGx3be_5ZPbBElCh1o6-119" style="shape=partialRectangle;html=1;whiteSpace=wrap;connectable=0;strokeColor=inherit;overflow=hidden;fillColor=none;top=0;left=0;bottom=0;right=0;pointerEvents=1;fontSize=16;" vertex="1" parent="RVGx3be_5ZPbBElCh1o6-116">
          <mxGeometry x="120" width="78" height="40" as="geometry">
            <mxRectangle width="78" height="40" as="alternateBounds" />
          </mxGeometry>
        </mxCell>
        <mxCell id="RVGx3be_5ZPbBElCh1o6-120" style="shape=partialRectangle;html=1;whiteSpace=wrap;connectable=0;strokeColor=inherit;overflow=hidden;fillColor=none;top=0;left=0;bottom=0;right=0;pointerEvents=1;fontSize=16;" vertex="1" parent="RVGx3be_5ZPbBElCh1o6-116">
          <mxGeometry x="198" width="77" height="40" as="geometry">
            <mxRectangle width="77" height="40" as="alternateBounds" />
          </mxGeometry>
        </mxCell>
        <mxCell id="RVGx3be_5ZPbBElCh1o6-121" style="shape=partialRectangle;html=1;whiteSpace=wrap;connectable=0;strokeColor=inherit;overflow=hidden;fillColor=none;top=0;left=0;bottom=0;right=0;pointerEvents=1;fontSize=16;" vertex="1" parent="RVGx3be_5ZPbBElCh1o6-116">
          <mxGeometry x="275" width="99" height="40" as="geometry">
            <mxRectangle width="99" height="40" as="alternateBounds" />
          </mxGeometry>
        </mxCell>
        <mxCell id="RVGx3be_5ZPbBElCh1o6-123" value="&lt;font style=&quot;font-size: 18px;&quot;&gt;用户(进程)打开文件表&lt;/font&gt;" style="text;strokeColor=none;align=center;fillColor=none;html=1;verticalAlign=middle;whiteSpace=wrap;rounded=0;" vertex="1" parent="1">
          <mxGeometry x="561" y="1284" width="181.5" height="30" as="geometry" />
        </mxCell>
        <mxCell id="RVGx3be_5ZPbBElCh1o6-124" value="进程A" style="text;strokeColor=none;align=center;fillColor=none;html=1;verticalAlign=middle;whiteSpace=wrap;rounded=0;fontSize=16;fontStyle=1" vertex="1" parent="1">
          <mxGeometry x="616" y="1012" width="60" height="52" as="geometry" />
        </mxCell>
        <mxCell id="RVGx3be_5ZPbBElCh1o6-159" style="edgeStyle=orthogonalEdgeStyle;curved=1;rounded=0;orthogonalLoop=1;jettySize=auto;html=1;exitX=1;exitY=0.75;exitDx=0;exitDy=0;entryX=-0.001;entryY=0.689;entryDx=0;entryDy=0;entryPerimeter=0;strokeColor=#660066;strokeWidth=4;" edge="1" parent="1" source="RVGx3be_5ZPbBElCh1o6-125" target="RVGx3be_5ZPbBElCh1o6-58">
          <mxGeometry relative="1" as="geometry" />
        </mxCell>
        <mxCell id="RVGx3be_5ZPbBElCh1o6-125" value="" style="shape=table;startSize=0;container=1;collapsible=0;childLayout=tableLayout;fontSize=16;" vertex="1" parent="1">
          <mxGeometry x="451" y="1383" width="374" height="200" as="geometry" />
        </mxCell>
        <mxCell id="RVGx3be_5ZPbBElCh1o6-126" value="" style="shape=tableRow;horizontal=0;startSize=0;swimlaneHead=0;swimlaneBody=0;strokeColor=inherit;top=0;left=0;bottom=0;right=0;collapsible=0;dropTarget=0;fillColor=none;points=[[0,0.5],[1,0.5]];portConstraint=eastwest;fontSize=16;" vertex="1" parent="RVGx3be_5ZPbBElCh1o6-125">
          <mxGeometry width="374" height="40" as="geometry" />
        </mxCell>
        <mxCell id="RVGx3be_5ZPbBElCh1o6-127" value="编号fd" style="shape=partialRectangle;html=1;whiteSpace=wrap;connectable=0;strokeColor=inherit;overflow=hidden;fillColor=none;top=0;left=0;bottom=0;right=0;pointerEvents=1;fontSize=16;" vertex="1" parent="RVGx3be_5ZPbBElCh1o6-126">
          <mxGeometry width="60" height="40" as="geometry">
            <mxRectangle width="60" height="40" as="alternateBounds" />
          </mxGeometry>
        </mxCell>
        <mxCell id="RVGx3be_5ZPbBElCh1o6-128" value="文件名" style="shape=partialRectangle;html=1;whiteSpace=wrap;connectable=0;strokeColor=inherit;overflow=hidden;fillColor=none;top=0;left=0;bottom=0;right=0;pointerEvents=1;fontSize=16;" vertex="1" parent="RVGx3be_5ZPbBElCh1o6-126">
          <mxGeometry x="60" width="60" height="40" as="geometry">
            <mxRectangle width="60" height="40" as="alternateBounds" />
          </mxGeometry>
        </mxCell>
        <mxCell id="RVGx3be_5ZPbBElCh1o6-129" value="读写指针" style="shape=partialRectangle;html=1;whiteSpace=wrap;connectable=0;strokeColor=inherit;overflow=hidden;fillColor=none;top=0;left=0;bottom=0;right=0;pointerEvents=1;fontSize=16;" vertex="1" parent="RVGx3be_5ZPbBElCh1o6-126">
          <mxGeometry x="120" width="78" height="40" as="geometry">
            <mxRectangle width="78" height="40" as="alternateBounds" />
          </mxGeometry>
        </mxCell>
        <mxCell id="RVGx3be_5ZPbBElCh1o6-130" value="访问权限" style="shape=partialRectangle;html=1;whiteSpace=wrap;connectable=0;strokeColor=inherit;overflow=hidden;fillColor=none;top=0;left=0;bottom=0;right=0;pointerEvents=1;fontSize=16;" vertex="1" parent="RVGx3be_5ZPbBElCh1o6-126">
          <mxGeometry x="198" width="77" height="40" as="geometry">
            <mxRectangle width="77" height="40" as="alternateBounds" />
          </mxGeometry>
        </mxCell>
        <mxCell id="RVGx3be_5ZPbBElCh1o6-131" value="系统表索引号" style="shape=partialRectangle;html=1;whiteSpace=wrap;connectable=0;strokeColor=inherit;overflow=hidden;fillColor=none;top=0;left=0;bottom=0;right=0;pointerEvents=1;fontSize=16;" vertex="1" parent="RVGx3be_5ZPbBElCh1o6-126">
          <mxGeometry x="275" width="99" height="40" as="geometry">
            <mxRectangle width="99" height="40" as="alternateBounds" />
          </mxGeometry>
        </mxCell>
        <mxCell id="RVGx3be_5ZPbBElCh1o6-132" value="" style="shape=tableRow;horizontal=0;startSize=0;swimlaneHead=0;swimlaneBody=0;strokeColor=inherit;top=0;left=0;bottom=0;right=0;collapsible=0;dropTarget=0;fillColor=none;points=[[0,0.5],[1,0.5]];portConstraint=eastwest;fontSize=16;" vertex="1" parent="RVGx3be_5ZPbBElCh1o6-125">
          <mxGeometry y="40" width="374" height="40" as="geometry" />
        </mxCell>
        <mxCell id="RVGx3be_5ZPbBElCh1o6-133" value="1" style="shape=partialRectangle;html=1;whiteSpace=wrap;connectable=0;strokeColor=inherit;overflow=hidden;fillColor=none;top=0;left=0;bottom=0;right=0;pointerEvents=1;fontSize=16;" vertex="1" parent="RVGx3be_5ZPbBElCh1o6-132">
          <mxGeometry width="60" height="40" as="geometry">
            <mxRectangle width="60" height="40" as="alternateBounds" />
          </mxGeometry>
        </mxCell>
        <mxCell id="RVGx3be_5ZPbBElCh1o6-134" value="...." style="shape=partialRectangle;html=1;whiteSpace=wrap;connectable=0;strokeColor=inherit;overflow=hidden;fillColor=none;top=0;left=0;bottom=0;right=0;pointerEvents=1;fontSize=16;" vertex="1" parent="RVGx3be_5ZPbBElCh1o6-132">
          <mxGeometry x="60" width="60" height="40" as="geometry">
            <mxRectangle width="60" height="40" as="alternateBounds" />
          </mxGeometry>
        </mxCell>
        <mxCell id="RVGx3be_5ZPbBElCh1o6-135" value="" style="shape=partialRectangle;html=1;whiteSpace=wrap;connectable=0;strokeColor=inherit;overflow=hidden;fillColor=none;top=0;left=0;bottom=0;right=0;pointerEvents=1;fontSize=16;" vertex="1" parent="RVGx3be_5ZPbBElCh1o6-132">
          <mxGeometry x="120" width="78" height="40" as="geometry">
            <mxRectangle width="78" height="40" as="alternateBounds" />
          </mxGeometry>
        </mxCell>
        <mxCell id="RVGx3be_5ZPbBElCh1o6-136" style="shape=partialRectangle;html=1;whiteSpace=wrap;connectable=0;strokeColor=inherit;overflow=hidden;fillColor=none;top=0;left=0;bottom=0;right=0;pointerEvents=1;fontSize=16;" vertex="1" parent="RVGx3be_5ZPbBElCh1o6-132">
          <mxGeometry x="198" width="77" height="40" as="geometry">
            <mxRectangle width="77" height="40" as="alternateBounds" />
          </mxGeometry>
        </mxCell>
        <mxCell id="RVGx3be_5ZPbBElCh1o6-137" value="...." style="shape=partialRectangle;html=1;whiteSpace=wrap;connectable=0;strokeColor=inherit;overflow=hidden;fillColor=none;top=0;left=0;bottom=0;right=0;pointerEvents=1;fontSize=16;" vertex="1" parent="RVGx3be_5ZPbBElCh1o6-132">
          <mxGeometry x="275" width="99" height="40" as="geometry">
            <mxRectangle width="99" height="40" as="alternateBounds" />
          </mxGeometry>
        </mxCell>
        <mxCell id="RVGx3be_5ZPbBElCh1o6-138" value="" style="shape=tableRow;horizontal=0;startSize=0;swimlaneHead=0;swimlaneBody=0;strokeColor=inherit;top=0;left=0;bottom=0;right=0;collapsible=0;dropTarget=0;fillColor=none;points=[[0,0.5],[1,0.5]];portConstraint=eastwest;fontSize=16;" vertex="1" parent="RVGx3be_5ZPbBElCh1o6-125">
          <mxGeometry y="80" width="374" height="40" as="geometry" />
        </mxCell>
        <mxCell id="RVGx3be_5ZPbBElCh1o6-139" value="...." style="shape=partialRectangle;html=1;whiteSpace=wrap;connectable=0;strokeColor=inherit;overflow=hidden;fillColor=none;top=0;left=0;bottom=0;right=0;pointerEvents=1;fontSize=16;" vertex="1" parent="RVGx3be_5ZPbBElCh1o6-138">
          <mxGeometry width="60" height="40" as="geometry">
            <mxRectangle width="60" height="40" as="alternateBounds" />
          </mxGeometry>
        </mxCell>
        <mxCell id="RVGx3be_5ZPbBElCh1o6-140" value="...." style="shape=partialRectangle;html=1;whiteSpace=wrap;connectable=0;strokeColor=inherit;overflow=hidden;fillColor=none;top=0;left=0;bottom=0;right=0;pointerEvents=1;fontSize=16;" vertex="1" parent="RVGx3be_5ZPbBElCh1o6-138">
          <mxGeometry x="60" width="60" height="40" as="geometry">
            <mxRectangle width="60" height="40" as="alternateBounds" />
          </mxGeometry>
        </mxCell>
        <mxCell id="RVGx3be_5ZPbBElCh1o6-141" value="" style="shape=partialRectangle;html=1;whiteSpace=wrap;connectable=0;strokeColor=inherit;overflow=hidden;fillColor=none;top=0;left=0;bottom=0;right=0;pointerEvents=1;fontSize=16;" vertex="1" parent="RVGx3be_5ZPbBElCh1o6-138">
          <mxGeometry x="120" width="78" height="40" as="geometry">
            <mxRectangle width="78" height="40" as="alternateBounds" />
          </mxGeometry>
        </mxCell>
        <mxCell id="RVGx3be_5ZPbBElCh1o6-142" style="shape=partialRectangle;html=1;whiteSpace=wrap;connectable=0;strokeColor=inherit;overflow=hidden;fillColor=none;top=0;left=0;bottom=0;right=0;pointerEvents=1;fontSize=16;" vertex="1" parent="RVGx3be_5ZPbBElCh1o6-138">
          <mxGeometry x="198" width="77" height="40" as="geometry">
            <mxRectangle width="77" height="40" as="alternateBounds" />
          </mxGeometry>
        </mxCell>
        <mxCell id="RVGx3be_5ZPbBElCh1o6-143" value="...." style="shape=partialRectangle;html=1;whiteSpace=wrap;connectable=0;strokeColor=inherit;overflow=hidden;fillColor=none;top=0;left=0;bottom=0;right=0;pointerEvents=1;fontSize=16;" vertex="1" parent="RVGx3be_5ZPbBElCh1o6-138">
          <mxGeometry x="275" width="99" height="40" as="geometry">
            <mxRectangle width="99" height="40" as="alternateBounds" />
          </mxGeometry>
        </mxCell>
        <mxCell id="RVGx3be_5ZPbBElCh1o6-144" style="shape=tableRow;horizontal=0;startSize=0;swimlaneHead=0;swimlaneBody=0;strokeColor=inherit;top=0;left=0;bottom=0;right=0;collapsible=0;dropTarget=0;fillColor=none;points=[[0,0.5],[1,0.5]];portConstraint=eastwest;fontSize=16;" vertex="1" parent="RVGx3be_5ZPbBElCh1o6-125">
          <mxGeometry y="120" width="374" height="40" as="geometry" />
        </mxCell>
        <mxCell id="RVGx3be_5ZPbBElCh1o6-145" value="9" style="shape=partialRectangle;html=1;whiteSpace=wrap;connectable=0;strokeColor=#82b366;overflow=hidden;fillColor=#d5e8d4;top=0;left=0;bottom=0;right=0;pointerEvents=1;fontSize=16;" vertex="1" parent="RVGx3be_5ZPbBElCh1o6-144">
          <mxGeometry width="60" height="40" as="geometry">
            <mxRectangle width="60" height="40" as="alternateBounds" />
          </mxGeometry>
        </mxCell>
        <mxCell id="RVGx3be_5ZPbBElCh1o6-146" value="test.txt" style="shape=partialRectangle;html=1;whiteSpace=wrap;connectable=0;strokeColor=#82b366;overflow=hidden;fillColor=#d5e8d4;top=0;left=0;bottom=0;right=0;pointerEvents=1;fontSize=16;" vertex="1" parent="RVGx3be_5ZPbBElCh1o6-144">
          <mxGeometry x="60" width="60" height="40" as="geometry">
            <mxRectangle width="60" height="40" as="alternateBounds" />
          </mxGeometry>
        </mxCell>
        <mxCell id="RVGx3be_5ZPbBElCh1o6-147" value="...." style="shape=partialRectangle;html=1;whiteSpace=wrap;connectable=0;strokeColor=#82b366;overflow=hidden;fillColor=#d5e8d4;top=0;left=0;bottom=0;right=0;pointerEvents=1;fontSize=16;" vertex="1" parent="RVGx3be_5ZPbBElCh1o6-144">
          <mxGeometry x="120" width="78" height="40" as="geometry">
            <mxRectangle width="78" height="40" as="alternateBounds" />
          </mxGeometry>
        </mxCell>
        <mxCell id="RVGx3be_5ZPbBElCh1o6-148" value="读写" style="shape=partialRectangle;html=1;whiteSpace=wrap;connectable=0;strokeColor=#82b366;overflow=hidden;fillColor=#d5e8d4;top=0;left=0;bottom=0;right=0;pointerEvents=1;fontSize=16;" vertex="1" parent="RVGx3be_5ZPbBElCh1o6-144">
          <mxGeometry x="198" width="77" height="40" as="geometry">
            <mxRectangle width="77" height="40" as="alternateBounds" />
          </mxGeometry>
        </mxCell>
        <mxCell id="RVGx3be_5ZPbBElCh1o6-149" value="k" style="shape=partialRectangle;html=1;whiteSpace=wrap;connectable=0;strokeColor=#82b366;overflow=hidden;fillColor=#d5e8d4;top=0;left=0;bottom=0;right=0;pointerEvents=1;fontSize=16;" vertex="1" parent="RVGx3be_5ZPbBElCh1o6-144">
          <mxGeometry x="275" width="99" height="40" as="geometry">
            <mxRectangle width="99" height="40" as="alternateBounds" />
          </mxGeometry>
        </mxCell>
        <mxCell id="RVGx3be_5ZPbBElCh1o6-150" style="shape=tableRow;horizontal=0;startSize=0;swimlaneHead=0;swimlaneBody=0;strokeColor=inherit;top=0;left=0;bottom=0;right=0;collapsible=0;dropTarget=0;fillColor=none;points=[[0,0.5],[1,0.5]];portConstraint=eastwest;fontSize=16;" vertex="1" parent="RVGx3be_5ZPbBElCh1o6-125">
          <mxGeometry y="160" width="374" height="40" as="geometry" />
        </mxCell>
        <mxCell id="RVGx3be_5ZPbBElCh1o6-151" value="...." style="shape=partialRectangle;html=1;whiteSpace=wrap;connectable=0;strokeColor=inherit;overflow=hidden;fillColor=none;top=0;left=0;bottom=0;right=0;pointerEvents=1;fontSize=16;" vertex="1" parent="RVGx3be_5ZPbBElCh1o6-150">
          <mxGeometry width="60" height="40" as="geometry">
            <mxRectangle width="60" height="40" as="alternateBounds" />
          </mxGeometry>
        </mxCell>
        <mxCell id="RVGx3be_5ZPbBElCh1o6-152" value="...." style="shape=partialRectangle;html=1;whiteSpace=wrap;connectable=0;strokeColor=inherit;overflow=hidden;fillColor=none;top=0;left=0;bottom=0;right=0;pointerEvents=1;fontSize=16;" vertex="1" parent="RVGx3be_5ZPbBElCh1o6-150">
          <mxGeometry x="60" width="60" height="40" as="geometry">
            <mxRectangle width="60" height="40" as="alternateBounds" />
          </mxGeometry>
        </mxCell>
        <mxCell id="RVGx3be_5ZPbBElCh1o6-153" style="shape=partialRectangle;html=1;whiteSpace=wrap;connectable=0;strokeColor=inherit;overflow=hidden;fillColor=none;top=0;left=0;bottom=0;right=0;pointerEvents=1;fontSize=16;" vertex="1" parent="RVGx3be_5ZPbBElCh1o6-150">
          <mxGeometry x="120" width="78" height="40" as="geometry">
            <mxRectangle width="78" height="40" as="alternateBounds" />
          </mxGeometry>
        </mxCell>
        <mxCell id="RVGx3be_5ZPbBElCh1o6-154" style="shape=partialRectangle;html=1;whiteSpace=wrap;connectable=0;strokeColor=inherit;overflow=hidden;fillColor=none;top=0;left=0;bottom=0;right=0;pointerEvents=1;fontSize=16;" vertex="1" parent="RVGx3be_5ZPbBElCh1o6-150">
          <mxGeometry x="198" width="77" height="40" as="geometry">
            <mxRectangle width="77" height="40" as="alternateBounds" />
          </mxGeometry>
        </mxCell>
        <mxCell id="RVGx3be_5ZPbBElCh1o6-155" style="shape=partialRectangle;html=1;whiteSpace=wrap;connectable=0;strokeColor=inherit;overflow=hidden;fillColor=none;top=0;left=0;bottom=0;right=0;pointerEvents=1;fontSize=16;" vertex="1" parent="RVGx3be_5ZPbBElCh1o6-150">
          <mxGeometry x="275" width="99" height="40" as="geometry">
            <mxRectangle width="99" height="40" as="alternateBounds" />
          </mxGeometry>
        </mxCell>
        <mxCell id="RVGx3be_5ZPbBElCh1o6-156" value="&lt;font style=&quot;font-size: 18px;&quot;&gt;用户(进程)打开文件表&lt;/font&gt;" style="text;strokeColor=none;align=center;fillColor=none;html=1;verticalAlign=middle;whiteSpace=wrap;rounded=0;" vertex="1" parent="1">
          <mxGeometry x="561" y="1603" width="181.5" height="30" as="geometry" />
        </mxCell>
        <mxCell id="RVGx3be_5ZPbBElCh1o6-157" value="进程B" style="text;strokeColor=none;align=center;fillColor=none;html=1;verticalAlign=middle;whiteSpace=wrap;rounded=0;fontSize=16;fontStyle=1" vertex="1" parent="1">
          <mxGeometry x="616" y="1331" width="60" height="52" as="geometry" />
        </mxCell>
        <mxCell id="RVGx3be_5ZPbBElCh1o6-160" value="fd可以理解为指向系统打开文件表中的条目的指针" style="text;strokeColor=none;align=center;fillColor=none;html=1;verticalAlign=middle;whiteSpace=wrap;rounded=0;fontSize=18;fontFamily=Lucida Console;labelBackgroundColor=#FF66FF;" vertex="1" parent="1">
          <mxGeometry x="1067" y="1053" width="165" height="113" as="geometry" />
        </mxCell>
        <mxCell id="RVGx3be_5ZPbBElCh1o6-161" value="" style="shape=table;startSize=0;container=1;collapsible=0;childLayout=tableLayout;fontSize=16;" vertex="1" parent="1">
          <mxGeometry x="496" y="1870" width="318" height="120" as="geometry" />
        </mxCell>
        <mxCell id="RVGx3be_5ZPbBElCh1o6-162" value="" style="shape=tableRow;horizontal=0;startSize=0;swimlaneHead=0;swimlaneBody=0;strokeColor=inherit;top=0;left=0;bottom=0;right=0;collapsible=0;dropTarget=0;fillColor=none;points=[[0,0.5],[1,0.5]];portConstraint=eastwest;fontSize=16;" vertex="1" parent="RVGx3be_5ZPbBElCh1o6-161">
          <mxGeometry width="318" height="40" as="geometry" />
        </mxCell>
        <mxCell id="RVGx3be_5ZPbBElCh1o6-163" value="用户" style="shape=partialRectangle;html=1;whiteSpace=wrap;connectable=0;strokeColor=inherit;overflow=hidden;fillColor=none;top=0;left=0;bottom=0;right=0;pointerEvents=1;fontSize=16;" vertex="1" parent="RVGx3be_5ZPbBElCh1o6-162">
          <mxGeometry width="60" height="40" as="geometry">
            <mxRectangle width="60" height="40" as="alternateBounds" />
          </mxGeometry>
        </mxCell>
        <mxCell id="RVGx3be_5ZPbBElCh1o6-164" value="完全控制" style="shape=partialRectangle;html=1;whiteSpace=wrap;connectable=0;strokeColor=inherit;overflow=hidden;fillColor=none;top=0;left=0;bottom=0;right=0;pointerEvents=1;fontSize=16;" vertex="1" parent="RVGx3be_5ZPbBElCh1o6-162">
          <mxGeometry x="60" width="93" height="40" as="geometry">
            <mxRectangle width="93" height="40" as="alternateBounds" />
          </mxGeometry>
        </mxCell>
        <mxCell id="RVGx3be_5ZPbBElCh1o6-165" value="读" style="shape=partialRectangle;html=1;whiteSpace=wrap;connectable=0;strokeColor=inherit;overflow=hidden;fillColor=none;top=0;left=0;bottom=0;right=0;pointerEvents=1;fontSize=16;" vertex="1" parent="RVGx3be_5ZPbBElCh1o6-162">
          <mxGeometry x="153" width="55" height="40" as="geometry">
            <mxRectangle width="55" height="40" as="alternateBounds" />
          </mxGeometry>
        </mxCell>
        <mxCell id="RVGx3be_5ZPbBElCh1o6-185" value="写" style="shape=partialRectangle;html=1;whiteSpace=wrap;connectable=0;strokeColor=inherit;overflow=hidden;fillColor=none;top=0;left=0;bottom=0;right=0;pointerEvents=1;fontSize=16;" vertex="1" parent="RVGx3be_5ZPbBElCh1o6-162">
          <mxGeometry x="208" width="55" height="40" as="geometry">
            <mxRectangle width="55" height="40" as="alternateBounds" />
          </mxGeometry>
        </mxCell>
        <mxCell id="RVGx3be_5ZPbBElCh1o6-188" value="执行" style="shape=partialRectangle;html=1;whiteSpace=wrap;connectable=0;strokeColor=inherit;overflow=hidden;fillColor=none;top=0;left=0;bottom=0;right=0;pointerEvents=1;fontSize=16;" vertex="1" parent="RVGx3be_5ZPbBElCh1o6-162">
          <mxGeometry x="263" width="55" height="40" as="geometry">
            <mxRectangle width="55" height="40" as="alternateBounds" />
          </mxGeometry>
        </mxCell>
        <mxCell id="RVGx3be_5ZPbBElCh1o6-166" value="" style="shape=tableRow;horizontal=0;startSize=0;swimlaneHead=0;swimlaneBody=0;strokeColor=inherit;top=0;left=0;bottom=0;right=0;collapsible=0;dropTarget=0;fillColor=none;points=[[0,0.5],[1,0.5]];portConstraint=eastwest;fontSize=16;" vertex="1" parent="RVGx3be_5ZPbBElCh1o6-161">
          <mxGeometry y="40" width="318" height="40" as="geometry" />
        </mxCell>
        <mxCell id="RVGx3be_5ZPbBElCh1o6-167" value="user1" style="shape=partialRectangle;html=1;whiteSpace=wrap;connectable=0;strokeColor=inherit;overflow=hidden;fillColor=none;top=0;left=0;bottom=0;right=0;pointerEvents=1;fontSize=16;" vertex="1" parent="RVGx3be_5ZPbBElCh1o6-166">
          <mxGeometry width="60" height="40" as="geometry">
            <mxRectangle width="60" height="40" as="alternateBounds" />
          </mxGeometry>
        </mxCell>
        <mxCell id="RVGx3be_5ZPbBElCh1o6-168" value="0" style="shape=partialRectangle;html=1;whiteSpace=wrap;connectable=0;strokeColor=inherit;overflow=hidden;fillColor=none;top=0;left=0;bottom=0;right=0;pointerEvents=1;fontSize=16;" vertex="1" parent="RVGx3be_5ZPbBElCh1o6-166">
          <mxGeometry x="60" width="93" height="40" as="geometry">
            <mxRectangle width="93" height="40" as="alternateBounds" />
          </mxGeometry>
        </mxCell>
        <mxCell id="RVGx3be_5ZPbBElCh1o6-169" value="1" style="shape=partialRectangle;html=1;whiteSpace=wrap;connectable=0;strokeColor=inherit;overflow=hidden;fillColor=none;top=0;left=0;bottom=0;right=0;pointerEvents=1;fontSize=16;" vertex="1" parent="RVGx3be_5ZPbBElCh1o6-166">
          <mxGeometry x="153" width="55" height="40" as="geometry">
            <mxRectangle width="55" height="40" as="alternateBounds" />
          </mxGeometry>
        </mxCell>
        <mxCell id="RVGx3be_5ZPbBElCh1o6-186" value="0" style="shape=partialRectangle;html=1;whiteSpace=wrap;connectable=0;strokeColor=inherit;overflow=hidden;fillColor=none;top=0;left=0;bottom=0;right=0;pointerEvents=1;fontSize=16;" vertex="1" parent="RVGx3be_5ZPbBElCh1o6-166">
          <mxGeometry x="208" width="55" height="40" as="geometry">
            <mxRectangle width="55" height="40" as="alternateBounds" />
          </mxGeometry>
        </mxCell>
        <mxCell id="RVGx3be_5ZPbBElCh1o6-189" value="0" style="shape=partialRectangle;html=1;whiteSpace=wrap;connectable=0;strokeColor=inherit;overflow=hidden;fillColor=none;top=0;left=0;bottom=0;right=0;pointerEvents=1;fontSize=16;" vertex="1" parent="RVGx3be_5ZPbBElCh1o6-166">
          <mxGeometry x="263" width="55" height="40" as="geometry">
            <mxRectangle width="55" height="40" as="alternateBounds" />
          </mxGeometry>
        </mxCell>
        <mxCell id="RVGx3be_5ZPbBElCh1o6-170" value="" style="shape=tableRow;horizontal=0;startSize=0;swimlaneHead=0;swimlaneBody=0;strokeColor=inherit;top=0;left=0;bottom=0;right=0;collapsible=0;dropTarget=0;fillColor=none;points=[[0,0.5],[1,0.5]];portConstraint=eastwest;fontSize=16;" vertex="1" parent="RVGx3be_5ZPbBElCh1o6-161">
          <mxGeometry y="80" width="318" height="40" as="geometry" />
        </mxCell>
        <mxCell id="RVGx3be_5ZPbBElCh1o6-171" value="user2" style="shape=partialRectangle;html=1;whiteSpace=wrap;connectable=0;strokeColor=inherit;overflow=hidden;fillColor=none;top=0;left=0;bottom=0;right=0;pointerEvents=1;fontSize=16;" vertex="1" parent="RVGx3be_5ZPbBElCh1o6-170">
          <mxGeometry width="60" height="40" as="geometry">
            <mxRectangle width="60" height="40" as="alternateBounds" />
          </mxGeometry>
        </mxCell>
        <mxCell id="RVGx3be_5ZPbBElCh1o6-172" value="0" style="shape=partialRectangle;html=1;whiteSpace=wrap;connectable=0;strokeColor=inherit;overflow=hidden;fillColor=none;top=0;left=0;bottom=0;right=0;pointerEvents=1;fontSize=16;" vertex="1" parent="RVGx3be_5ZPbBElCh1o6-170">
          <mxGeometry x="60" width="93" height="40" as="geometry">
            <mxRectangle width="93" height="40" as="alternateBounds" />
          </mxGeometry>
        </mxCell>
        <mxCell id="RVGx3be_5ZPbBElCh1o6-173" value="0" style="shape=partialRectangle;html=1;whiteSpace=wrap;connectable=0;strokeColor=inherit;overflow=hidden;fillColor=none;top=0;left=0;bottom=0;right=0;pointerEvents=1;fontSize=16;" vertex="1" parent="RVGx3be_5ZPbBElCh1o6-170">
          <mxGeometry x="153" width="55" height="40" as="geometry">
            <mxRectangle width="55" height="40" as="alternateBounds" />
          </mxGeometry>
        </mxCell>
        <mxCell id="RVGx3be_5ZPbBElCh1o6-187" value="0" style="shape=partialRectangle;html=1;whiteSpace=wrap;connectable=0;strokeColor=inherit;overflow=hidden;fillColor=none;top=0;left=0;bottom=0;right=0;pointerEvents=1;fontSize=16;" vertex="1" parent="RVGx3be_5ZPbBElCh1o6-170">
          <mxGeometry x="208" width="55" height="40" as="geometry">
            <mxRectangle width="55" height="40" as="alternateBounds" />
          </mxGeometry>
        </mxCell>
        <mxCell id="RVGx3be_5ZPbBElCh1o6-190" value="1" style="shape=partialRectangle;html=1;whiteSpace=wrap;connectable=0;strokeColor=inherit;overflow=hidden;fillColor=none;top=0;left=0;bottom=0;right=0;pointerEvents=1;fontSize=16;" vertex="1" parent="RVGx3be_5ZPbBElCh1o6-170">
          <mxGeometry x="263" width="55" height="40" as="geometry">
            <mxRectangle width="55" height="40" as="alternateBounds" />
          </mxGeometry>
        </mxCell>
      </root>
    </mxGraphModel>
  </diagram>
</mxfile>
